<svg xmlns="http://www.w3.org/2000/svg"
     xmlns:xlink="http://www.w3.org/1999/xlink"
     viewBox="0 0 100 100">
  <rect x="2.5%" y="2.5%" width="95%" height="95%" rx="5%" ry="5%" fill="white" stroke="rgb(38, 64, 64)" stroke-width="5%"/>

  <circle cx="50" cy="50" r="22" fill="white" stroke="rgb(38, 64, 64)" stroke-width="8" />
  <circle cx="50" cy="50" r="9" fill="white" stroke="rgb(38, 64, 64)" stroke-width="6" />

  <rect x="47" y="16" width="6" height="14" rx="2" fill="rgb(38, 64, 64)" />
  <rect x="47" y="70" width="6" height="14" rx="2" fill="rgb(38, 64, 64)" />
  <rect x="16" y="47" width="14" height="6" rx="2" fill="rgb(38, 64, 64)" />
  <rect x="70" y="47" width="14" height="6" rx="2" fill="rgb(38, 64, 64)" />

  <rect x="26" y="26" width="6" height="12" rx="2" fill="rgb(38, 64, 64)" transform="rotate(-45 29 32)" />
  <rect x="68" y="62" width="6" height="12" rx="2" fill="rgb(38, 64, 64)" transform="rotate(-45 71 68)" />
  <rect x="62" y="26" width="6" height="12" rx="2" fill="rgb(38, 64, 64)" transform="rotate(45 65 32)" />
  <rect x="26" y="62" width="6" height="12" rx="2" fill="rgb(38, 64, 64)" transform="rotate(45 29 68)" />
</svg>
